{
    "asset" : {
        "generator" : "Khronos glTF Blender I/O v1.3.48",
        "version" : "2.0"
    },
    "scene" : 0,
    "scenes" : [
        {
            "name" : "Scene",
            "nodes" : [
                0,
                1
            ]
        }
    ],
    "nodes" : [
        {
            "mesh" : 0,
            "name" : "Bridge"
        },
        {
            "mesh" : 1,
            "name" : "Bridge_collider"
        }
    ],
    "materials" : [
        {
            "doubleSided" : true,
            "emissiveFactor" : [
                0,
                0,
                0
            ],
            "name" : "Chocolate",
            "normalTexture" : {
                "index" : 0,
                "texCoord" : 0
            },
            "pbrMetallicRoughness" : {
                "baseColorTexture" : {
                    "index" : 1,
                    "texCoord" : 0
                },
                "metallicFactor" : 0.4000000059604645,
                "roughnessFactor" : 0.800000011920929
            }
        }
    ],
    "meshes" : [
        {
            "name" : "Cube.014",
            "primitives" : [
                {
                    "attributes" : {
                        "POSITION" : 0,
                        "NORMAL" : 1,
                        "TEXCOORD_0" : 2
                    },
                    "indices" : 3,
                    "material" : 0
                }
            ]
        },
        {
            "name" : "Cube.016",
            "primitives" : [
                {
                    "attributes" : {
                        "POSITION" : 4,
                        "NORMAL" : 5,
                        "TEXCOORD_0" : 6
                    },
                    "indices" : 7
                }
            ]
        }
    ],
    "textures" : [
        {
            "source" : 0
        },
        {
            "source" : 1
        }
    ],
    "images" : [
        {
            "bufferView" : 4,
            "mimeType" : "image/png",
            "name" : "ChocolateRiver_nrm"
        },
        {
            "bufferView" : 5,
            "mimeType" : "image/png",
            "name" : "ChocolateRiver"
        }
    ],
    "accessors" : [
        {
            "bufferView" : 0,
            "componentType" : 5126,
            "count" : 720,
            "max" : [
                1.6749168634414673,
                0.22823378443717957,
                5.461254119873047
            ],
            "min" : [
                -1.674917459487915,
                -0.3148336410522461,
                -2.927982807159424
            ],
            "type" : "VEC3"
        },
        {
            "bufferView" : 1,
            "componentType" : 5126,
            "count" : 720,
            "type" : "VEC3"
        },
        {
            "bufferView" : 2,
            "componentType" : 5126,
            "count" : 720,
            "type" : "VEC2"
        },
        {
            "bufferView" : 3,
            "componentType" : 5123,
            "count" : 2256,
            "type" : "SCALAR"
        },
        {
            "bufferView" : 6,
            "componentType" : 5126,
            "count" : 60,
            "max" : [
                1.693151831626892,
                0.25859543681144714,
                5.713514804840088
            ],
            "min" : [
                -1.6886459589004517,
                -0.33989688754081726,
                -3.1203370094299316
            ],
            "type" : "VEC3"
        },
        {
            "bufferView" : 7,
            "componentType" : 5126,
            "count" : 60,
            "type" : "VEC3"
        },
        {
            "bufferView" : 8,
            "componentType" : 5126,
            "count" : 60,
            "type" : "VEC2"
        },
        {
            "bufferView" : 9,
            "componentType" : 5123,
            "count" : 108,
            "type" : "SCALAR"
        }
    ],
    "bufferViews" : [
        {
            "buffer" : 0,
            "byteLength" : 8640,
            "byteOffset" : 0
        },
        {
            "buffer" : 0,
            "byteLength" : 8640,
            "byteOffset" : 8640
        },
        {
            "buffer" : 0,
            "byteLength" : 5760,
            "byteOffset" : 17280
        },
        {
            "buffer" : 0,
            "byteLength" : 4512,
            "byteOffset" : 23040
        },
        {
            "buffer" : 0,
            "byteLength" : 359178,
            "byteOffset" : 27552
        },
        {
            "buffer" : 0,
            "byteLength" : 268552,
            "byteOffset" : 386732
        },
        {
            "buffer" : 0,
            "byteLength" : 720,
            "byteOffset" : 655284
        },
        {
            "buffer" : 0,
            "byteLength" : 720,
            "byteOffset" : 656004
        },
        {
            "buffer" : 0,
            "byteLength" : 480,
            "byteOffset" : 656724
        },
        {
            "buffer" : 0,
            "byteLength" : 216,
            "byteOffset" : 657204
        }
    ],
    "buffers" : [
        {
            "byteLength" : 657420,
            "uri" : "data:application/octet-stream;base64,"
        }
    ]
}
