{
    "asset" : {
        "generator" : "Khronos glTF Blender I/O v1.3.48",
        "version" : "2.0"
    },
    "scene" : 0,
    "scenes" : [
        {
            "name" : "Scene",
            "nodes" : [
                0,
                1
            ]
        }
    ],
    "nodes" : [
        {
            "mesh" : 0,
            "name" : "CandyCane"
        },
        {
            "mesh" : 1,
            "name" : "CandyCane_collider"
        }
    ],
    "materials" : [
        {
            "doubleSided" : true,
            "emissiveFactor" : [
                0,
                0,
                0
            ],
            "name" : "CandyWhite",
            "pbrMetallicRoughness" : {
                "baseColorFactor" : [
                    0.9999854564666748,
                    0.9999854564666748,
                    0.9999854564666748,
                    1
                ],
                "metallicFactor" : 0.20454545319080353,
                "roughnessFactor" : 0.15217390656471252
            }
        },
        {
            "doubleSided" : true,
            "emissiveFactor" : [
                0,
                0,
                0
            ],
            "name" : "CandyRed",
            "pbrMetallicRoughness" : {
                "baseColorFactor" : [
                    0.8000000715255737,
                    0.009034070186316967,
                    0.02266576886177063,
                    1
                ],
                "metallicFactor" : 0.6272727251052856,
                "roughnessFactor" : 0.27975404262542725
            }
        }
    ],
    "meshes" : [
        {
            "name" : "Cylinder",
            "primitives" : [
                {
                    "attributes" : {
                        "POSITION" : 0,
                        "NORMAL" : 1,
                        "TEXCOORD_0" : 2
                    },
                    "indices" : 3,
                    "material" : 0
                },
                {
                    "attributes" : {
                        "POSITION" : 4,
                        "NORMAL" : 5,
                        "TEXCOORD_0" : 6
                    },
                    "indices" : 7,
                    "material" : 1
                }
            ]
        },
        {
            "name" : "Cylinder.006",
            "primitives" : [
                {
                    "attributes" : {
                        "POSITION" : 8,
                        "NORMAL" : 9,
                        "TEXCOORD_0" : 10
                    },
                    "indices" : 11
                }
            ]
        }
    ],
    "accessors" : [
        {
            "bufferView" : 0,
            "componentType" : 5126,
            "count" : 152,
            "max" : [
                0.20369958877563477,
                1.1799097061157227,
                0.11188101768493652
            ],
            "min" : [
                -0.5172717571258545,
                -1.5366638898849487,
                -0.14483261108398438
            ],
            "type" : "VEC3"
        },
        {
            "bufferView" : 1,
            "componentType" : 5126,
            "count" : 152,
            "type" : "VEC3"
        },
        {
            "bufferView" : 2,
            "componentType" : 5126,
            "count" : 152,
            "type" : "VEC2"
        },
        {
            "bufferView" : 3,
            "componentType" : 5123,
            "count" : 426,
            "type" : "SCALAR"
        },
        {
            "bufferView" : 4,
            "componentType" : 5126,
            "count" : 144,
            "max" : [
                0.20369958877563477,
                1.1799097061157227,
                0.11188101768493652
            ],
            "min" : [
                -0.5172717571258545,
                -1.5366638898849487,
                -0.14483261108398438
            ],
            "type" : "VEC3"
        },
        {
            "bufferView" : 5,
            "componentType" : 5126,
            "count" : 144,
            "type" : "VEC3"
        },
        {
            "bufferView" : 6,
            "componentType" : 5126,
            "count" : 144,
            "type" : "VEC2"
        },
        {
            "bufferView" : 7,
            "componentType" : 5123,
            "count" : 408,
            "type" : "SCALAR"
        },
        {
            "bufferView" : 8,
            "componentType" : 5126,
            "count" : 36,
            "max" : [
                0.25237584114074707,
                0.8513360023498535,
                0.1942298412322998
            ],
            "min" : [
                -0.033102989196777344,
                -1.5426433086395264,
                -0.13541269302368164
            ],
            "type" : "VEC3"
        },
        {
            "bufferView" : 9,
            "componentType" : 5126,
            "count" : 36,
            "type" : "VEC3"
        },
        {
            "bufferView" : 10,
            "componentType" : 5126,
            "count" : 36,
            "type" : "VEC2"
        },
        {
            "bufferView" : 11,
            "componentType" : 5123,
            "count" : 60,
            "type" : "SCALAR"
        }
    ],
    "bufferViews" : [
        {
            "buffer" : 0,
            "byteLength" : 1824,
            "byteOffset" : 0
        },
        {
            "buffer" : 0,
            "byteLength" : 1824,
            "byteOffset" : 1824
        },
        {
            "buffer" : 0,
            "byteLength" : 1216,
            "byteOffset" : 3648
        },
        {
            "buffer" : 0,
            "byteLength" : 852,
            "byteOffset" : 4864
        },
        {
            "buffer" : 0,
            "byteLength" : 1728,
            "byteOffset" : 5716
        },
        {
            "buffer" : 0,
            "byteLength" : 1728,
            "byteOffset" : 7444
        },
        {
            "buffer" : 0,
            "byteLength" : 1152,
            "byteOffset" : 9172
        },
        {
            "buffer" : 0,
            "byteLength" : 816,
            "byteOffset" : 10324
        },
        {
            "buffer" : 0,
            "byteLength" : 432,
            "byteOffset" : 11140
        },
        {
            "buffer" : 0,
            "byteLength" : 432,
            "byteOffset" : 11572
        },
        {
            "buffer" : 0,
            "byteLength" : 288,
            "byteOffset" : 12004
        },
        {
            "buffer" : 0,
            "byteLength" : 120,
            "byteOffset" : 12292
        }
    ],
    "buffers" : [
        {
            "byteLength" : 12412,
            "uri" : "data:application/octet-stream;base64,"
        }
    ]
}
