{
    "asset" : {
        "generator" : "Khronos glTF Blender I/O v1.3.48",
        "version" : "2.0"
    },
    "scene" : 0,
    "scenes" : [
        {
            "name" : "Scene",
            "nodes" : [
                0,
                1,
                2
            ]
        }
    ],
    "nodes" : [
        {
            "mesh" : 0,
            "name" : "ChocolateTree",
            "rotation" : [
                -0.238862082362175,
                0.8295419812202454,
                0.5019595623016357,
                -0.053308553993701935
            ],
            "scale" : [
                0.16218338906764984,
                0.07756176590919495,
                0.16218338906764984
            ],
            "translation" : [
                7.961320400238037,
                0.9020054340362549,
                -2.541903018951416
            ]
        },
        {
            "mesh" : 1,
            "name" : "ChocolateTree_collider",
            "scale" : [
                2.024498462677002,
                2.653158664703369,
                2.024498462677002
            ],
            "translation" : [
                8.499528884887695,
                2.419713020324707,
                -4.027187347412109
            ]
        },
        {
            "mesh" : 2,
            "name" : "Star",
            "rotation" : [
                -0.4156140387058258,
                0.5720707178115845,
                -0.5720707774162292,
                0.4156140983104706
            ],
            "scale" : [
                0.4697415232658386,
                0.46974146366119385,
                0.4697415232658386
            ],
            "translation" : [
                8.492542266845703,
                7.513418674468994,
                -4.0030012130737305
            ]
        }
    ],
    "materials" : [
        {
            "doubleSided" : true,
            "emissiveFactor" : [
                0,
                0,
                0
            ],
            "name" : "Icing",
            "normalTexture" : {
                "index" : 0,
                "texCoord" : 0
            },
            "pbrMetallicRoughness" : {
                "baseColorTexture" : {
                    "index" : 1,
                    "texCoord" : 0
                },
                "metallicFactor" : 0.30000001192092896,
                "roughnessFactor" : 1
            }
        },
        {
            "doubleSided" : true,
            "emissiveFactor" : [
                0,
                0,
                0
            ],
            "name" : "SmartieBlue",
            "pbrMetallicRoughness" : {
                "baseColorFactor" : [
                    0.06932497024536133,
                    0.21388283371925354,
                    0.4385438859462738,
                    1
                ],
                "metallicFactor" : 0.23188406229019165,
                "roughnessFactor" : 0.2971014380455017
            }
        },
        {
            "doubleSided" : true,
            "emissiveFactor" : [
                0,
                0,
                0
            ],
            "name" : "SmartieRed",
            "pbrMetallicRoughness" : {
                "baseColorFactor" : [
                    0.4385438859462738,
                    0.008635173551738262,
                    0.01630728505551815,
                    1
                ],
                "metallicFactor" : 0.23188406229019165,
                "roughnessFactor" : 0.2971014380455017
            }
        },
        {
            "doubleSided" : true,
            "emissiveFactor" : [
                0,
                0,
                0
            ],
            "name" : "SmartieGreen",
            "pbrMetallicRoughness" : {
                "baseColorFactor" : [
                    0.1131298616528511,
                    0.4385438859462738,
                    0.024917718023061752,
                    1
                ],
                "metallicFactor" : 0.23188406229019165,
                "roughnessFactor" : 0.2971014380455017
            }
        },
        {
            "doubleSided" : true,
            "emissiveFactor" : [
                0,
                0,
                0
            ],
            "name" : "SmartieYellow",
            "pbrMetallicRoughness" : {
                "baseColorFactor" : [
                    0.4385438859462738,
                    0.39968758821487427,
                    0.020142165943980217,
                    1
                ],
                "metallicFactor" : 0.23188406229019165,
                "roughnessFactor" : 0.2971014380455017
            }
        },
        {
            "doubleSided" : true,
            "emissiveFactor" : [
                0,
                0,
                0
            ],
            "name" : "Chocolate",
            "normalTexture" : {
                "index" : 2,
                "texCoord" : 0
            },
            "pbrMetallicRoughness" : {
                "baseColorTexture" : {
                    "index" : 3,
                    "texCoord" : 0
                },
                "metallicFactor" : 0.8727273344993591,
                "roughnessFactor" : 0.34090909361839294
            }
        },
        {
            "doubleSided" : true,
            "emissiveFactor" : [
                1,
                0.8811790943145752,
                0.09987743198871613
            ],
            "name" : "Star",
            "pbrMetallicRoughness" : {}
        }
    ],
    "meshes" : [
        {
            "name" : "Icosphere.037",
            "primitives" : [
                {
                    "attributes" : {
                        "POSITION" : 0,
                        "NORMAL" : 1,
                        "TEXCOORD_0" : 2
                    },
                    "indices" : 3,
                    "material" : 0
                },
                {
                    "attributes" : {
                        "POSITION" : 4,
                        "NORMAL" : 5,
                        "TEXCOORD_0" : 6
                    },
                    "indices" : 7,
                    "material" : 1
                },
                {
                    "attributes" : {
                        "POSITION" : 8,
                        "NORMAL" : 9,
                        "TEXCOORD_0" : 10
                    },
                    "indices" : 11,
                    "material" : 2
                },
                {
                    "attributes" : {
                        "POSITION" : 12,
                        "NORMAL" : 13,
                        "TEXCOORD_0" : 14
                    },
                    "indices" : 15,
                    "material" : 3
                },
                {
                    "attributes" : {
                        "POSITION" : 16,
                        "NORMAL" : 17,
                        "TEXCOORD_0" : 18
                    },
                    "indices" : 19,
                    "material" : 4
                },
                {
                    "attributes" : {
                        "POSITION" : 20,
                        "NORMAL" : 21,
                        "TEXCOORD_0" : 22
                    },
                    "indices" : 23,
                    "material" : 5
                }
            ]
        },
        {
            "name" : "Cylinder.003",
            "primitives" : [
                {
                    "attributes" : {
                        "POSITION" : 24,
                        "NORMAL" : 25,
                        "TEXCOORD_0" : 26
                    },
                    "indices" : 27
                }
            ]
        },
        {
            "name" : "Cylinder.001",
            "primitives" : [
                {
                    "attributes" : {
                        "POSITION" : 28,
                        "NORMAL" : 29,
                        "TEXCOORD_0" : 30
                    },
                    "indices" : 31,
                    "material" : 6
                }
            ]
        }
    ],
    "textures" : [
        {
            "source" : 0
        },
        {
            "source" : 1
        },
        {
            "source" : 2
        },
        {
            "source" : 3
        }
    ],
    "images" : [
        {
            "bufferView" : 4,
            "mimeType" : "image/png",
            "name" : "IcingNormal"
        },
        {
            "bufferView" : 5,
            "mimeType" : "image/png",
            "name" : "IcingAlbedo"
        },
        {
            "bufferView" : 26,
            "mimeType" : "image/png",
            "name" : "ChocolateRiver_nrm"
        },
        {
            "bufferView" : 27,
            "mimeType" : "image/png",
            "name" : "ChocolateRiver"
        }
    ],
    "accessors" : [
        {
            "bufferView" : 0,
            "componentType" : 5126,
            "count" : 297,
            "max" : [
                4.396393299102783,
                13.321247100830078,
                34.35179138183594
            ],
            "min" : [
                -19.138011932373047,
                -29.920366287231445,
                -3.959437608718872
            ],
            "type" : "VEC3"
        },
        {
            "bufferView" : 1,
            "componentType" : 5126,
            "count" : 297,
            "type" : "VEC3"
        },
        {
            "bufferView" : 2,
            "componentType" : 5126,
            "count" : 297,
            "type" : "VEC2"
        },
        {
            "bufferView" : 3,
            "componentType" : 5123,
            "count" : 1071,
            "type" : "SCALAR"
        },
        {
            "bufferView" : 6,
            "componentType" : 5126,
            "count" : 441,
            "max" : [
                3.8290791511535645,
                12.375091552734375,
                23.036935806274414
            ],
            "min" : [
                -15.439009666442871,
                -35.15473937988281,
                -1.6702133417129517
            ],
            "type" : "VEC3"
        },
        {
            "bufferView" : 7,
            "componentType" : 5126,
            "count" : 441,
            "type" : "VEC3"
        },
        {
            "bufferView" : 8,
            "componentType" : 5126,
            "count" : 441,
            "type" : "VEC2"
        },
        {
            "bufferView" : 9,
            "componentType" : 5123,
            "count" : 1680,
            "type" : "SCALAR"
        },
        {
            "bufferView" : 10,
            "componentType" : 5126,
            "count" : 756,
            "max" : [
                7.520103931427002,
                7.667664527893066,
                25.412445068359375
            ],
            "min" : [
                -15.262903213500977,
                -31.03874969482422,
                0.6758072972297668
            ],
            "type" : "VEC3"
        },
        {
            "bufferView" : 11,
            "componentType" : 5126,
            "count" : 756,
            "type" : "VEC3"
        },
        {
            "bufferView" : 12,
            "componentType" : 5126,
            "count" : 756,
            "type" : "VEC2"
        },
        {
            "bufferView" : 13,
            "componentType" : 5123,
            "count" : 2880,
            "type" : "SCALAR"
        },
        {
            "bufferView" : 14,
            "componentType" : 5126,
            "count" : 378,
            "max" : [
                4.173966884613037,
                7.207526683807373,
                26.858022689819336
            ],
            "min" : [
                -11.742237091064453,
                -36.264068603515625,
                5.624948501586914
            ],
            "type" : "VEC3"
        },
        {
            "bufferView" : 15,
            "componentType" : 5126,
            "count" : 378,
            "type" : "VEC3"
        },
        {
            "bufferView" : 16,
            "componentType" : 5126,
            "count" : 378,
            "type" : "VEC2"
        },
        {
            "bufferView" : 17,
            "componentType" : 5123,
            "count" : 1440,
            "type" : "SCALAR"
        },
        {
            "bufferView" : 18,
            "componentType" : 5126,
            "count" : 314,
            "max" : [
                1.0530258417129517,
                7.69516658782959,
                19.89232063293457
            ],
            "min" : [
                -16.981494903564453,
                -22.171350479125977,
                4.600653648376465
            ],
            "type" : "VEC3"
        },
        {
            "bufferView" : 19,
            "componentType" : 5126,
            "count" : 314,
            "type" : "VEC3"
        },
        {
            "bufferView" : 20,
            "componentType" : 5126,
            "count" : 314,
            "type" : "VEC2"
        },
        {
            "bufferView" : 21,
            "componentType" : 5123,
            "count" : 1194,
            "type" : "SCALAR"
        },
        {
            "bufferView" : 22,
            "componentType" : 5126,
            "count" : 298,
            "max" : [
                8.887142181396484,
                12.048246383666992,
                28.583065032958984
            ],
            "min" : [
                -17.806882858276367,
                -40.309600830078125,
                -4.673807621002197
            ],
            "type" : "VEC3"
        },
        {
            "bufferView" : 23,
            "componentType" : 5126,
            "count" : 298,
            "type" : "VEC3"
        },
        {
            "bufferView" : 24,
            "componentType" : 5126,
            "count" : 298,
            "type" : "VEC2"
        },
        {
            "bufferView" : 25,
            "componentType" : 5123,
            "count" : 1029,
            "type" : "SCALAR"
        },
        {
            "bufferView" : 28,
            "componentType" : 5126,
            "count" : 100,
            "max" : [
                0.9510565400123596,
                1.7906568050384521,
                1
            ],
            "min" : [
                -0.9510564804077148,
                -1,
                -1
            ],
            "type" : "VEC3"
        },
        {
            "bufferView" : 29,
            "componentType" : 5126,
            "count" : 100,
            "type" : "VEC3"
        },
        {
            "bufferView" : 30,
            "componentType" : 5126,
            "count" : 100,
            "type" : "VEC2"
        },
        {
            "bufferView" : 31,
            "componentType" : 5123,
            "count" : 168,
            "type" : "SCALAR"
        },
        {
            "bufferView" : 32,
            "componentType" : 5126,
            "count" : 311,
            "max" : [
                0.8955621719360352,
                0.10130172967910767,
                0.7657122611999512
            ],
            "min" : [
                -0.895747184753418,
                -0.10130101442337036,
                -0.9379251003265381
            ],
            "type" : "VEC3"
        },
        {
            "bufferView" : 33,
            "componentType" : 5126,
            "count" : 311,
            "type" : "VEC3"
        },
        {
            "bufferView" : 34,
            "componentType" : 5126,
            "count" : 311,
            "type" : "VEC2"
        },
        {
            "bufferView" : 35,
            "componentType" : 5123,
            "count" : 948,
            "type" : "SCALAR"
        }
    ],
    "bufferViews" : [
        {
            "buffer" : 0,
            "byteLength" : 3564,
            "byteOffset" : 0
        },
        {
            "buffer" : 0,
            "byteLength" : 3564,
            "byteOffset" : 3564
        },
        {
            "buffer" : 0,
            "byteLength" : 2376,
            "byteOffset" : 7128
        },
        {
            "buffer" : 0,
            "byteLength" : 2142,
            "byteOffset" : 9504
        },
        {
            "buffer" : 0,
            "byteLength" : 465931,
            "byteOffset" : 11648
        },
        {
            "buffer" : 0,
            "byteLength" : 171364,
            "byteOffset" : 477580
        },
        {
            "buffer" : 0,
            "byteLength" : 5292,
            "byteOffset" : 648944
        },
        {
            "buffer" : 0,
            "byteLength" : 5292,
            "byteOffset" : 654236
        },
        {
            "buffer" : 0,
            "byteLength" : 3528,
            "byteOffset" : 659528
        },
        {
            "buffer" : 0,
            "byteLength" : 3360,
            "byteOffset" : 663056
        },
        {
            "buffer" : 0,
            "byteLength" : 9072,
            "byteOffset" : 666416
        },
        {
            "buffer" : 0,
            "byteLength" : 9072,
            "byteOffset" : 675488
        },
        {
            "buffer" : 0,
            "byteLength" : 6048,
            "byteOffset" : 684560
        },
        {
            "buffer" : 0,
            "byteLength" : 5760,
            "byteOffset" : 690608
        },
        {
            "buffer" : 0,
            "byteLength" : 4536,
            "byteOffset" : 696368
        },
        {
            "buffer" : 0,
            "byteLength" : 4536,
            "byteOffset" : 700904
        },
        {
            "buffer" : 0,
            "byteLength" : 3024,
            "byteOffset" : 705440
        },
        {
            "buffer" : 0,
            "byteLength" : 2880,
            "byteOffset" : 708464
        },
        {
            "buffer" : 0,
            "byteLength" : 3768,
            "byteOffset" : 711344
        },
        {
            "buffer" : 0,
            "byteLength" : 3768,
            "byteOffset" : 715112
        },
        {
            "buffer" : 0,
            "byteLength" : 2512,
            "byteOffset" : 718880
        },
        {
            "buffer" : 0,
            "byteLength" : 2388,
            "byteOffset" : 721392
        },
        {
            "buffer" : 0,
            "byteLength" : 3576,
            "byteOffset" : 723780
        },
        {
            "buffer" : 0,
            "byteLength" : 3576,
            "byteOffset" : 727356
        },
        {
            "buffer" : 0,
            "byteLength" : 2384,
            "byteOffset" : 730932
        },
        {
            "buffer" : 0,
            "byteLength" : 2058,
            "byteOffset" : 733316
        },
        {
            "buffer" : 0,
            "byteLength" : 359178,
            "byteOffset" : 735376
        },
        {
            "buffer" : 0,
            "byteLength" : 268552,
            "byteOffset" : 1094556
        },
        {
            "buffer" : 0,
            "byteLength" : 1200,
            "byteOffset" : 1363108
        },
        {
            "buffer" : 0,
            "byteLength" : 1200,
            "byteOffset" : 1364308
        },
        {
            "buffer" : 0,
            "byteLength" : 800,
            "byteOffset" : 1365508
        },
        {
            "buffer" : 0,
            "byteLength" : 336,
            "byteOffset" : 1366308
        },
        {
            "buffer" : 0,
            "byteLength" : 3732,
            "byteOffset" : 1366644
        },
        {
            "buffer" : 0,
            "byteLength" : 3732,
            "byteOffset" : 1370376
        },
        {
            "buffer" : 0,
            "byteLength" : 2488,
            "byteOffset" : 1374108
        },
        {
            "buffer" : 0,
            "byteLength" : 1896,
            "byteOffset" : 1376596
        }
    ],
    "buffers" : [
        {
            "byteLength" : 1378492,
            "uri" : "data:application/octet-stream;base64,"
        }
    ]
}
