{
    "asset" : {
        "generator" : "Khronos glTF Blender I/O v1.3.48",
        "version" : "2.0"
    },
    "scene" : 0,
    "scenes" : [
        {
            "name" : "Scene",
            "nodes" : [
                0,
                1
            ]
        }
    ],
    "nodes" : [
        {
            "mesh" : 0,
            "name" : "Debris"
        },
        {
            "mesh" : 1,
            "name" : "Debris_collider"
        }
    ],
    "materials" : [
        {
            "doubleSided" : true,
            "emissiveFactor" : [
                0,
                0,
                0
            ],
            "name" : "Chocolate",
            "normalTexture" : {
                "index" : 0,
                "texCoord" : 0
            },
            "pbrMetallicRoughness" : {
                "baseColorTexture" : {
                    "index" : 1,
                    "texCoord" : 0
                },
                "metallicFactor" : 0.8727273344993591,
                "roughnessFactor" : 0.34090909361839294
            }
        },
        {
            "doubleSided" : true,
            "emissiveFactor" : [
                0,
                0,
                0
            ],
            "name" : "SmartieBlue",
            "pbrMetallicRoughness" : {
                "baseColorFactor" : [
                    0.06932497024536133,
                    0.21388283371925354,
                    0.4385438859462738,
                    1
                ],
                "metallicFactor" : 0.23188406229019165,
                "roughnessFactor" : 0.2971014380455017
            }
        },
        {
            "doubleSided" : true,
            "emissiveFactor" : [
                0,
                0,
                0
            ],
            "name" : "SmartieGreen",
            "pbrMetallicRoughness" : {
                "baseColorFactor" : [
                    0.1131298616528511,
                    0.4385438859462738,
                    0.024917718023061752,
                    1
                ],
                "metallicFactor" : 0.23188406229019165,
                "roughnessFactor" : 0.2971014380455017
            }
        },
        {
            "doubleSided" : true,
            "emissiveFactor" : [
                0,
                0,
                0
            ],
            "name" : "SmartieYellow",
            "pbrMetallicRoughness" : {
                "baseColorFactor" : [
                    0.4385438859462738,
                    0.39968758821487427,
                    0.020142165943980217,
                    1
                ],
                "metallicFactor" : 0.23188406229019165,
                "roughnessFactor" : 0.2971014380455017
            }
        }
    ],
    "meshes" : [
        {
            "name" : "Cube.021",
            "primitives" : [
                {
                    "attributes" : {
                        "POSITION" : 0,
                        "NORMAL" : 1,
                        "TEXCOORD_0" : 2
                    },
                    "indices" : 3,
                    "material" : 0
                },
                {
                    "attributes" : {
                        "POSITION" : 4,
                        "NORMAL" : 5,
                        "TEXCOORD_0" : 6
                    },
                    "indices" : 7,
                    "material" : 1
                },
                {
                    "attributes" : {
                        "POSITION" : 8,
                        "NORMAL" : 9,
                        "TEXCOORD_0" : 10
                    },
                    "indices" : 7,
                    "material" : 2
                },
                {
                    "attributes" : {
                        "POSITION" : 11,
                        "NORMAL" : 12,
                        "TEXCOORD_0" : 13
                    },
                    "indices" : 7,
                    "material" : 3
                }
            ]
        },
        {
            "name" : "Cube",
            "primitives" : [
                {
                    "attributes" : {
                        "POSITION" : 14,
                        "NORMAL" : 15,
                        "TEXCOORD_0" : 16
                    },
                    "indices" : 17
                }
            ]
        }
    ],
    "textures" : [
        {
            "source" : 0
        },
        {
            "source" : 1
        }
    ],
    "images" : [
        {
            "bufferView" : 4,
            "mimeType" : "image/png",
            "name" : "ChocolateRiver_nrm"
        },
        {
            "bufferView" : 5,
            "mimeType" : "image/png",
            "name" : "ChocolateRiver"
        }
    ],
    "accessors" : [
        {
            "bufferView" : 0,
            "componentType" : 5126,
            "count" : 1744,
            "max" : [
                1.8292913436889648,
                0.47631460428237915,
                0.3814411163330078
            ],
            "min" : [
                -1.630549430847168,
                -0.29076051712036133,
                -0.7590336799621582
            ],
            "type" : "VEC3"
        },
        {
            "bufferView" : 1,
            "componentType" : 5126,
            "count" : 1744,
            "type" : "VEC3"
        },
        {
            "bufferView" : 2,
            "componentType" : 5126,
            "count" : 1744,
            "type" : "VEC2"
        },
        {
            "bufferView" : 3,
            "componentType" : 5123,
            "count" : 2640,
            "type" : "SCALAR"
        },
        {
            "bufferView" : 6,
            "componentType" : 5126,
            "count" : 63,
            "max" : [
                -0.8159620761871338,
                0.201308012008667,
                0.25694942474365234
            ],
            "min" : [
                -1.1244536638259888,
                0.04618450999259949,
                -0.06741714477539062
            ],
            "type" : "VEC3"
        },
        {
            "bufferView" : 7,
            "componentType" : 5126,
            "count" : 63,
            "type" : "VEC3"
        },
        {
            "bufferView" : 8,
            "componentType" : 5126,
            "count" : 63,
            "type" : "VEC2"
        },
        {
            "bufferView" : 9,
            "componentType" : 5123,
            "count" : 240,
            "type" : "SCALAR"
        },
        {
            "bufferView" : 10,
            "componentType" : 5126,
            "count" : 63,
            "max" : [
                -0.5352716445922852,
                -0.1698993742465973,
                -0.1731419563293457
            ],
            "min" : [
                -0.8437631130218506,
                -0.3250228762626648,
                -0.4975090026855469
            ],
            "type" : "VEC3"
        },
        {
            "bufferView" : 11,
            "componentType" : 5126,
            "count" : 63,
            "type" : "VEC3"
        },
        {
            "bufferView" : 12,
            "componentType" : 5126,
            "count" : 63,
            "type" : "VEC2"
        },
        {
            "bufferView" : 13,
            "componentType" : 5126,
            "count" : 63,
            "max" : [
                1.3671765327453613,
                0.01970013976097107,
                -0.10607767105102539
            ],
            "min" : [
                1.0586848258972168,
                -0.2742759883403778,
                -0.29421186447143555
            ],
            "type" : "VEC3"
        },
        {
            "bufferView" : 14,
            "componentType" : 5126,
            "count" : 63,
            "type" : "VEC3"
        },
        {
            "bufferView" : 15,
            "componentType" : 5126,
            "count" : 63,
            "type" : "VEC2"
        },
        {
            "bufferView" : 16,
            "componentType" : 5126,
            "count" : 180,
            "max" : [
                1.8348240852355957,
                0.5131579041481018,
                0.34765052795410156
            ],
            "min" : [
                -1.6725373268127441,
                -0.24970942735671997,
                -0.7395968437194824
            ],
            "type" : "VEC3"
        },
        {
            "bufferView" : 17,
            "componentType" : 5126,
            "count" : 180,
            "type" : "VEC3"
        },
        {
            "bufferView" : 18,
            "componentType" : 5126,
            "count" : 180,
            "type" : "VEC2"
        },
        {
            "bufferView" : 19,
            "componentType" : 5123,
            "count" : 372,
            "type" : "SCALAR"
        }
    ],
    "bufferViews" : [
        {
            "buffer" : 0,
            "byteLength" : 20928,
            "byteOffset" : 0
        },
        {
            "buffer" : 0,
            "byteLength" : 20928,
            "byteOffset" : 20928
        },
        {
            "buffer" : 0,
            "byteLength" : 13952,
            "byteOffset" : 41856
        },
        {
            "buffer" : 0,
            "byteLength" : 5280,
            "byteOffset" : 55808
        },
        {
            "buffer" : 0,
            "byteLength" : 359178,
            "byteOffset" : 61088
        },
        {
            "buffer" : 0,
            "byteLength" : 268552,
            "byteOffset" : 420268
        },
        {
            "buffer" : 0,
            "byteLength" : 756,
            "byteOffset" : 688820
        },
        {
            "buffer" : 0,
            "byteLength" : 756,
            "byteOffset" : 689576
        },
        {
            "buffer" : 0,
            "byteLength" : 504,
            "byteOffset" : 690332
        },
        {
            "buffer" : 0,
            "byteLength" : 480,
            "byteOffset" : 690836
        },
        {
            "buffer" : 0,
            "byteLength" : 756,
            "byteOffset" : 691316
        },
        {
            "buffer" : 0,
            "byteLength" : 756,
            "byteOffset" : 692072
        },
        {
            "buffer" : 0,
            "byteLength" : 504,
            "byteOffset" : 692828
        },
        {
            "buffer" : 0,
            "byteLength" : 756,
            "byteOffset" : 693332
        },
        {
            "buffer" : 0,
            "byteLength" : 756,
            "byteOffset" : 694088
        },
        {
            "buffer" : 0,
            "byteLength" : 504,
            "byteOffset" : 694844
        },
        {
            "buffer" : 0,
            "byteLength" : 2160,
            "byteOffset" : 695348
        },
        {
            "buffer" : 0,
            "byteLength" : 2160,
            "byteOffset" : 697508
        },
        {
            "buffer" : 0,
            "byteLength" : 1440,
            "byteOffset" : 699668
        },
        {
            "buffer" : 0,
            "byteLength" : 744,
            "byteOffset" : 701108
        }
    ],
    "buffers" : [
        {
            "byteLength" : 701852,
            "uri" : "data:application/octet-stream;base64,"
        }
    ]
}
