{
    "asset" : {
        "generator" : "Khronos glTF Blender I/O v1.3.48",
        "version" : "2.0"
    },
    "scene" : 0,
    "scenes" : [
        {
            "name" : "Scene",
            "nodes" : [
                0,
                1
            ]
        }
    ],
    "nodes" : [
        {
            "mesh" : 0,
            "name" : "Door",
            "translation" : [
                -1.842179298400879,
                1.521226167678833,
                0.7452645301818848
            ]
        },
        {
            "mesh" : 1,
            "name" : "Door_collider",
            "translation" : [
                -1.842179298400879,
                1.521226167678833,
                0.7452645301818848
            ]
        }
    ],
    "materials" : [
        {
            "doubleSided" : true,
            "emissiveFactor" : [
                0,
                0,
                0
            ],
            "name" : "Icing",
            "pbrMetallicRoughness" : {
                "baseColorFactor" : [
                    0.46163231134414673,
                    0.46163231134414673,
                    0.46163231134414673,
                    1
                ],
                "metallicFactor" : 0.12272726744413376,
                "roughnessFactor" : 0.5136363506317139
            }
        },
        {
            "doubleSided" : true,
            "emissiveFactor" : [
                0,
                0,
                0
            ],
            "name" : "GingerBread",
            "normalTexture" : {
                "index" : 0,
                "texCoord" : 0
            },
            "pbrMetallicRoughness" : {
                "baseColorTexture" : {
                    "index" : 1,
                    "texCoord" : 0
                },
                "metallicFactor" : 0.3136363625526428,
                "roughnessFactor" : 1
            }
        }
    ],
    "meshes" : [
        {
            "name" : "Icosphere",
            "primitives" : [
                {
                    "attributes" : {
                        "POSITION" : 0,
                        "NORMAL" : 1,
                        "TEXCOORD_0" : 2
                    },
                    "indices" : 3,
                    "material" : 0
                },
                {
                    "attributes" : {
                        "POSITION" : 4,
                        "NORMAL" : 5,
                        "TEXCOORD_0" : 6
                    },
                    "indices" : 7,
                    "material" : 1
                }
            ]
        },
        {
            "name" : "Cube.013",
            "primitives" : [
                {
                    "attributes" : {
                        "POSITION" : 8,
                        "NORMAL" : 9,
                        "TEXCOORD_0" : 10
                    },
                    "indices" : 11
                }
            ]
        }
    ],
    "textures" : [
        {
            "source" : 0
        },
        {
            "source" : 1
        }
    ],
    "images" : [
        {
            "bufferView" : 8,
            "mimeType" : "image/png",
            "name" : "Normal"
        },
        {
            "bufferView" : 9,
            "mimeType" : "image/png",
            "name" : "GingerBreadAlbedo"
        }
    ],
    "accessors" : [
        {
            "bufferView" : 0,
            "componentType" : 5126,
            "count" : 382,
            "max" : [
                1.5426602363586426,
                1.3509225845336914,
                0.07045358419418335
            ],
            "min" : [
                0.04153275489807129,
                -1.2252815961837769,
                -0.12016302347183228
            ],
            "type" : "VEC3"
        },
        {
            "bufferView" : 1,
            "componentType" : 5126,
            "count" : 382,
            "type" : "VEC3"
        },
        {
            "bufferView" : 2,
            "componentType" : 5126,
            "count" : 382,
            "type" : "VEC2"
        },
        {
            "bufferView" : 3,
            "componentType" : 5123,
            "count" : 600,
            "type" : "SCALAR"
        },
        {
            "bufferView" : 4,
            "componentType" : 5126,
            "count" : 132,
            "max" : [
                1.5943171977996826,
                1.4089369773864746,
                0.21117395162582397
            ],
            "min" : [
                -0.004224300384521484,
                -1.2489386796951294,
                4.738569259643555e-05
            ],
            "type" : "VEC3"
        },
        {
            "bufferView" : 5,
            "componentType" : 5126,
            "count" : 132,
            "type" : "VEC3"
        },
        {
            "bufferView" : 6,
            "componentType" : 5126,
            "count" : 132,
            "type" : "VEC2"
        },
        {
            "bufferView" : 7,
            "componentType" : 5123,
            "count" : 360,
            "type" : "SCALAR"
        },
        {
            "bufferView" : 10,
            "componentType" : 5126,
            "count" : 40,
            "max" : [
                1.614105224609375,
                1.410825252532959,
                0.22460311651229858
            ],
            "min" : [
                -0.03226511552929878,
                -1.2606252431869507,
                -0.05642758309841156
            ],
            "type" : "VEC3"
        },
        {
            "bufferView" : 11,
            "componentType" : 5126,
            "count" : 40,
            "type" : "VEC3"
        },
        {
            "bufferView" : 12,
            "componentType" : 5126,
            "count" : 40,
            "type" : "VEC2"
        },
        {
            "bufferView" : 13,
            "componentType" : 5123,
            "count" : 60,
            "type" : "SCALAR"
        }
    ],
    "bufferViews" : [
        {
            "buffer" : 0,
            "byteLength" : 4584,
            "byteOffset" : 0
        },
        {
            "buffer" : 0,
            "byteLength" : 4584,
            "byteOffset" : 4584
        },
        {
            "buffer" : 0,
            "byteLength" : 3056,
            "byteOffset" : 9168
        },
        {
            "buffer" : 0,
            "byteLength" : 1200,
            "byteOffset" : 12224
        },
        {
            "buffer" : 0,
            "byteLength" : 1584,
            "byteOffset" : 13424
        },
        {
            "buffer" : 0,
            "byteLength" : 1584,
            "byteOffset" : 15008
        },
        {
            "buffer" : 0,
            "byteLength" : 1056,
            "byteOffset" : 16592
        },
        {
            "buffer" : 0,
            "byteLength" : 720,
            "byteOffset" : 17648
        },
        {
            "buffer" : 0,
            "byteLength" : 699563,
            "byteOffset" : 18368
        },
        {
            "buffer" : 0,
            "byteLength" : 325509,
            "byteOffset" : 717932
        },
        {
            "buffer" : 0,
            "byteLength" : 480,
            "byteOffset" : 1043444
        },
        {
            "buffer" : 0,
            "byteLength" : 480,
            "byteOffset" : 1043924
        },
        {
            "buffer" : 0,
            "byteLength" : 320,
            "byteOffset" : 1044404
        },
        {
            "buffer" : 0,
            "byteLength" : 120,
            "byteOffset" : 1044724
        }
    ],
    "buffers" : [
        {
            "byteLength" : 1044844,
            "uri" : "data:application/octet-stream;base64,"
        }
    ]
}
