{
    "asset" : {
        "generator" : "Khronos glTF Blender I/O v1.3.48",
        "version" : "2.0"
    },
    "scene" : 0,
    "scenes" : [
        {
            "name" : "Scene",
            "nodes" : [
                0,
                1
            ]
        }
    ],
    "nodes" : [
        {
            "mesh" : 0,
            "name" : "Floor",
            "scale" : [
                0.9900000095367432,
                2,
                0.9900000095367432
            ],
            "translation" : [
                -83.65409851074219,
                0,
                -24
            ]
        },
        {
            "mesh" : 1,
            "name" : "Floor_collider",
            "scale" : [
                0.9900000095367432,
                2,
                0.9900000095367432
            ],
            "translation" : [
                -83.65409851074219,
                0,
                -24
            ]
        }
    ],
    "materials" : [
        {
            "doubleSided" : true,
            "emissiveFactor" : [
                0,
                0,
                0
            ],
            "name" : "Icing",
            "normalTexture" : {
                "index" : 0,
                "texCoord" : 0
            },
            "pbrMetallicRoughness" : {
                "baseColorTexture" : {
                    "index" : 1,
                    "texCoord" : 0
                },
                "metallicFactor" : 0.30000001192092896,
                "roughnessFactor" : 1
            }
        },
        {
            "doubleSided" : true,
            "emissiveFactor" : [
                0,
                0,
                0
            ],
            "name" : "ChocolateRock",
            "normalTexture" : {
                "index" : 2,
                "texCoord" : 0
            },
            "pbrMetallicRoughness" : {
                "baseColorTexture" : {
                    "index" : 3,
                    "texCoord" : 0
                },
                "metallicFactor" : 0.15909090638160706,
                "roughnessFactor" : 0.9409090876579285
            }
        },
        {
            "doubleSided" : true,
            "emissiveFactor" : [
                0,
                0,
                0
            ],
            "name" : "Icing.004",
            "normalTexture" : {
                "index" : 4,
                "texCoord" : 0
            },
            "pbrMetallicRoughness" : {
                "baseColorTexture" : {
                    "index" : 5,
                    "texCoord" : 0
                },
                "metallicFactor" : 0.30000001192092896,
                "roughnessFactor" : 1
            }
        },
        {
            "doubleSided" : true,
            "emissiveFactor" : [
                0,
                0,
                0
            ],
            "name" : "ChocolateRock.002",
            "normalTexture" : {
                "index" : 6,
                "texCoord" : 0
            },
            "pbrMetallicRoughness" : {
                "baseColorTexture" : {
                    "index" : 7,
                    "texCoord" : 0
                },
                "metallicFactor" : 0.6123259663581848,
                "roughnessFactor" : 0.8136363625526428
            }
        }
    ],
    "meshes" : [
        {
            "name" : "Plane.005",
            "primitives" : [
                {
                    "attributes" : {
                        "POSITION" : 0,
                        "NORMAL" : 1,
                        "TEXCOORD_0" : 2
                    },
                    "indices" : 3,
                    "material" : 0
                },
                {
                    "attributes" : {
                        "POSITION" : 4,
                        "NORMAL" : 5,
                        "TEXCOORD_0" : 6
                    },
                    "indices" : 7,
                    "material" : 1
                }
            ]
        },
        {
            "name" : "Plane.008",
            "primitives" : [
                {
                    "attributes" : {
                        "POSITION" : 8,
                        "NORMAL" : 9,
                        "TEXCOORD_0" : 10
                    },
                    "indices" : 3,
                    "material" : 2
                },
                {
                    "attributes" : {
                        "POSITION" : 11,
                        "NORMAL" : 12,
                        "TEXCOORD_0" : 13
                    },
                    "indices" : 7,
                    "material" : 3
                }
            ]
        }
    ],
    "textures" : [
        {
            "source" : 0
        },
        {
            "source" : 1
        },
        {
            "source" : 2
        },
        {
            "source" : 2
        },
        {
            "source" : 0
        },
        {
            "source" : 1
        },
        {
            "source" : 3
        },
        {
            "source" : 2
        }
    ],
    "images" : [
        {
            "bufferView" : 4,
            "mimeType" : "image/png",
            "name" : "IcingNormal"
        },
        {
            "bufferView" : 5,
            "mimeType" : "image/png",
            "name" : "IcingAlbedo"
        },
        {
            "bufferView" : 10,
            "mimeType" : "image/png",
            "name" : "ChocolateRock"
        },
        {
            "bufferView" : 17,
            "mimeType" : "image/png",
            "name" : "ChocolateNormal"
        }
    ],
    "accessors" : [
        {
            "bufferView" : 0,
            "componentType" : 5126,
            "count" : 786,
            "max" : [
                48.000038146972656,
                1.278640627861023,
                64.00009155273438
            ],
            "min" : [
                5.7220458984375e-06,
                7.450580596923828e-09,
                5.7220458984375e-06
            ],
            "type" : "VEC3"
        },
        {
            "bufferView" : 1,
            "componentType" : 5126,
            "count" : 786,
            "type" : "VEC3"
        },
        {
            "bufferView" : 2,
            "componentType" : 5126,
            "count" : 786,
            "type" : "VEC2"
        },
        {
            "bufferView" : 3,
            "componentType" : 5123,
            "count" : 3672,
            "type" : "SCALAR"
        },
        {
            "bufferView" : 6,
            "componentType" : 5126,
            "count" : 102,
            "max" : [
                42.43398666381836,
                0.8232737183570862,
                42.37323760986328
            ],
            "min" : [
                5.5766282081604,
                3.725290298461914e-09,
                23.381332397460938
            ],
            "type" : "VEC3"
        },
        {
            "bufferView" : 7,
            "componentType" : 5126,
            "count" : 102,
            "type" : "VEC3"
        },
        {
            "bufferView" : 8,
            "componentType" : 5126,
            "count" : 102,
            "type" : "VEC2"
        },
        {
            "bufferView" : 9,
            "componentType" : 5123,
            "count" : 276,
            "type" : "SCALAR"
        },
        {
            "bufferView" : 11,
            "componentType" : 5126,
            "count" : 786,
            "max" : [
                48.000038146972656,
                1.278640627861023,
                64.00009155273438
            ],
            "min" : [
                5.7220458984375e-06,
                7.450580596923828e-09,
                5.7220458984375e-06
            ],
            "type" : "VEC3"
        },
        {
            "bufferView" : 12,
            "componentType" : 5126,
            "count" : 786,
            "type" : "VEC3"
        },
        {
            "bufferView" : 13,
            "componentType" : 5126,
            "count" : 786,
            "type" : "VEC2"
        },
        {
            "bufferView" : 14,
            "componentType" : 5126,
            "count" : 102,
            "max" : [
                42.43398666381836,
                0.8232737183570862,
                42.37323760986328
            ],
            "min" : [
                5.5766282081604,
                3.725290298461914e-09,
                23.381332397460938
            ],
            "type" : "VEC3"
        },
        {
            "bufferView" : 15,
            "componentType" : 5126,
            "count" : 102,
            "type" : "VEC3"
        },
        {
            "bufferView" : 16,
            "componentType" : 5126,
            "count" : 102,
            "type" : "VEC2"
        }
    ],
    "bufferViews" : [
        {
            "buffer" : 0,
            "byteLength" : 9432,
            "byteOffset" : 0
        },
        {
            "buffer" : 0,
            "byteLength" : 9432,
            "byteOffset" : 9432
        },
        {
            "buffer" : 0,
            "byteLength" : 6288,
            "byteOffset" : 18864
        },
        {
            "buffer" : 0,
            "byteLength" : 7344,
            "byteOffset" : 25152
        },
        {
            "buffer" : 0,
            "byteLength" : 465931,
            "byteOffset" : 32496
        },
        {
            "buffer" : 0,
            "byteLength" : 171364,
            "byteOffset" : 498428
        },
        {
            "buffer" : 0,
            "byteLength" : 1224,
            "byteOffset" : 669792
        },
        {
            "buffer" : 0,
            "byteLength" : 1224,
            "byteOffset" : 671016
        },
        {
            "buffer" : 0,
            "byteLength" : 816,
            "byteOffset" : 672240
        },
        {
            "buffer" : 0,
            "byteLength" : 552,
            "byteOffset" : 673056
        },
        {
            "buffer" : 0,
            "byteLength" : 535007,
            "byteOffset" : 673608
        },
        {
            "buffer" : 0,
            "byteLength" : 9432,
            "byteOffset" : 1208616
        },
        {
            "buffer" : 0,
            "byteLength" : 9432,
            "byteOffset" : 1218048
        },
        {
            "buffer" : 0,
            "byteLength" : 6288,
            "byteOffset" : 1227480
        },
        {
            "buffer" : 0,
            "byteLength" : 1224,
            "byteOffset" : 1233768
        },
        {
            "buffer" : 0,
            "byteLength" : 1224,
            "byteOffset" : 1234992
        },
        {
            "buffer" : 0,
            "byteLength" : 816,
            "byteOffset" : 1236216
        },
        {
            "buffer" : 0,
            "byteLength" : 671520,
            "byteOffset" : 1237032
        }
    ],
    "buffers" : [
        {
            "byteLength" : 1908552,
            "uri" : "data:application/octet-stream;base64,"
        }
    ]
}
