{
    "asset" : {
        "generator" : "Khronos glTF Blender I/O v1.3.48",
        "version" : "2.0"
    },
    "scene" : 0,
    "scenes" : [
        {
            "name" : "Scene",
            "nodes" : [
                0,
                1
            ]
        }
    ],
    "nodes" : [
        {
            "mesh" : 0,
            "name" : "GingerBreadTree"
        },
        {
            "mesh" : 1,
            "name" : "GingerBreadTree_collider"
        }
    ],
    "materials" : [
        {
            "doubleSided" : true,
            "emissiveFactor" : [
                0,
                0,
                0
            ],
            "name" : "GingerBread",
            "normalTexture" : {
                "index" : 0,
                "texCoord" : 0
            },
            "pbrMetallicRoughness" : {
                "baseColorTexture" : {
                    "index" : 1,
                    "texCoord" : 0
                },
                "metallicFactor" : 0.3136363625526428,
                "roughnessFactor" : 1
            }
        },
        {
            "doubleSided" : true,
            "emissiveFactor" : [
                0,
                0,
                0
            ],
            "name" : "Icing",
            "normalTexture" : {
                "index" : 2,
                "texCoord" : 0
            },
            "pbrMetallicRoughness" : {
                "baseColorTexture" : {
                    "index" : 3,
                    "texCoord" : 0
                },
                "metallicFactor" : 0.30000001192092896,
                "roughnessFactor" : 1
            }
        }
    ],
    "meshes" : [
        {
            "name" : "Cube.009",
            "primitives" : [
                {
                    "attributes" : {
                        "POSITION" : 0,
                        "NORMAL" : 1,
                        "TEXCOORD_0" : 2
                    },
                    "indices" : 3,
                    "material" : 0
                },
                {
                    "attributes" : {
                        "POSITION" : 4,
                        "NORMAL" : 5,
                        "TEXCOORD_0" : 6
                    },
                    "indices" : 7,
                    "material" : 1
                }
            ]
        },
        {
            "name" : "Cube.011",
            "primitives" : [
                {
                    "attributes" : {
                        "POSITION" : 8,
                        "NORMAL" : 9,
                        "TEXCOORD_0" : 10
                    },
                    "indices" : 11
                }
            ]
        }
    ],
    "textures" : [
        {
            "source" : 0
        },
        {
            "source" : 1
        },
        {
            "source" : 2
        },
        {
            "source" : 3
        }
    ],
    "images" : [
        {
            "bufferView" : 4,
            "mimeType" : "image/png",
            "name" : "Normal"
        },
        {
            "bufferView" : 5,
            "mimeType" : "image/png",
            "name" : "GingerBreadAlbedo"
        },
        {
            "bufferView" : 10,
            "mimeType" : "image/png",
            "name" : "IcingNormal"
        },
        {
            "bufferView" : 11,
            "mimeType" : "image/png",
            "name" : "IcingAlbedo"
        }
    ],
    "accessors" : [
        {
            "bufferView" : 0,
            "componentType" : 5126,
            "count" : 1020,
            "max" : [
                1.3850510120391846,
                2.003490924835205,
                0.13982723653316498
            ],
            "min" : [
                -1.3850514888763428,
                -1.2626019716262817,
                -0.13982729613780975
            ],
            "type" : "VEC3"
        },
        {
            "bufferView" : 1,
            "componentType" : 5126,
            "count" : 1020,
            "type" : "VEC3"
        },
        {
            "bufferView" : 2,
            "componentType" : 5126,
            "count" : 1020,
            "type" : "VEC2"
        },
        {
            "bufferView" : 3,
            "componentType" : 5123,
            "count" : 1824,
            "type" : "SCALAR"
        },
        {
            "bufferView" : 6,
            "componentType" : 5126,
            "count" : 252,
            "max" : [
                1.2341426610946655,
                1.9295107126235962,
                0.17334038019180298
            ],
            "min" : [
                -1.2438768148422241,
                -0.8752217888832092,
                -0.17334045469760895
            ],
            "type" : "VEC3"
        },
        {
            "bufferView" : 7,
            "componentType" : 5126,
            "count" : 252,
            "type" : "VEC3"
        },
        {
            "bufferView" : 8,
            "componentType" : 5126,
            "count" : 252,
            "type" : "VEC2"
        },
        {
            "bufferView" : 9,
            "componentType" : 5123,
            "count" : 1008,
            "type" : "SCALAR"
        },
        {
            "bufferView" : 12,
            "componentType" : 5126,
            "count" : 24,
            "max" : [
                1.6119437217712402,
                2.0258686542510986,
                0.19474181532859802
            ],
            "min" : [
                -1.6029279232025146,
                -1.2040646076202393,
                -0.21089333295822144
            ],
            "type" : "VEC3"
        },
        {
            "bufferView" : 13,
            "componentType" : 5126,
            "count" : 24,
            "type" : "VEC3"
        },
        {
            "bufferView" : 14,
            "componentType" : 5126,
            "count" : 24,
            "type" : "VEC2"
        },
        {
            "bufferView" : 15,
            "componentType" : 5123,
            "count" : 36,
            "type" : "SCALAR"
        }
    ],
    "bufferViews" : [
        {
            "buffer" : 0,
            "byteLength" : 12240,
            "byteOffset" : 0
        },
        {
            "buffer" : 0,
            "byteLength" : 12240,
            "byteOffset" : 12240
        },
        {
            "buffer" : 0,
            "byteLength" : 8160,
            "byteOffset" : 24480
        },
        {
            "buffer" : 0,
            "byteLength" : 3648,
            "byteOffset" : 32640
        },
        {
            "buffer" : 0,
            "byteLength" : 699563,
            "byteOffset" : 36288
        },
        {
            "buffer" : 0,
            "byteLength" : 325509,
            "byteOffset" : 735852
        },
        {
            "buffer" : 0,
            "byteLength" : 3024,
            "byteOffset" : 1061364
        },
        {
            "buffer" : 0,
            "byteLength" : 3024,
            "byteOffset" : 1064388
        },
        {
            "buffer" : 0,
            "byteLength" : 2016,
            "byteOffset" : 1067412
        },
        {
            "buffer" : 0,
            "byteLength" : 2016,
            "byteOffset" : 1069428
        },
        {
            "buffer" : 0,
            "byteLength" : 465931,
            "byteOffset" : 1071444
        },
        {
            "buffer" : 0,
            "byteLength" : 171364,
            "byteOffset" : 1537376
        },
        {
            "buffer" : 0,
            "byteLength" : 288,
            "byteOffset" : 1708740
        },
        {
            "buffer" : 0,
            "byteLength" : 288,
            "byteOffset" : 1709028
        },
        {
            "buffer" : 0,
            "byteLength" : 192,
            "byteOffset" : 1709316
        },
        {
            "buffer" : 0,
            "byteLength" : 72,
            "byteOffset" : 1709508
        }
    ],
    "buffers" : [
        {
            "byteLength" : 1709580,
            "uri" : "data:application/octet-stream;base64,"
        }
    ]
}
