{
    "asset" : {
        "generator" : "Khronos glTF Blender I/O v1.3.48",
        "version" : "2.0"
    },
    "scene" : 0,
    "scenes" : [
        {
            "name" : "Scene",
            "nodes" : [
                0,
                1
            ]
        }
    ],
    "nodes" : [
        {
            "mesh" : 0,
            "name" : "Presents_collider",
            "translation" : [
                0,
                -0.5345070958137512,
                0
            ]
        },
        {
            "mesh" : 1,
            "name" : "Presents"
        }
    ],
    "materials" : [
        {
            "doubleSided" : true,
            "emissiveFactor" : [
                0,
                0,
                0
            ],
            "name" : "Ribbon",
            "pbrMetallicRoughness" : {
                "baseColorFactor" : [
                    0.8000000715255737,
                    0.7212567329406738,
                    0.10043573379516602,
                    1
                ],
                "metallicFactor" : 0.6908212304115295,
                "roughnessFactor" : 0.5
            }
        },
        {
            "doubleSided" : true,
            "emissiveFactor" : [
                0,
                0,
                0
            ],
            "name" : "WrappingPaperGreen",
            "pbrMetallicRoughness" : {
                "baseColorTexture" : {
                    "index" : 0,
                    "texCoord" : 0
                },
                "metallicFactor" : 0,
                "roughnessFactor" : 0.75
            }
        },
        {
            "doubleSided" : true,
            "emissiveFactor" : [
                0,
                0,
                0
            ],
            "name" : "WrappingPaper",
            "pbrMetallicRoughness" : {
                "baseColorTexture" : {
                    "index" : 1,
                    "texCoord" : 0
                },
                "metallicFactor" : 0,
                "roughnessFactor" : 0.75
            }
        },
        {
            "doubleSided" : true,
            "emissiveFactor" : [
                0,
                0,
                0
            ],
            "name" : "WrappingPaperBlue",
            "pbrMetallicRoughness" : {
                "baseColorTexture" : {
                    "index" : 2,
                    "texCoord" : 0
                },
                "metallicFactor" : 0,
                "roughnessFactor" : 0.75
            }
        }
    ],
    "meshes" : [
        {
            "name" : "Cube.007",
            "primitives" : [
                {
                    "attributes" : {
                        "POSITION" : 0,
                        "NORMAL" : 1,
                        "TEXCOORD_0" : 2
                    },
                    "indices" : 3
                }
            ]
        },
        {
            "name" : "Cube.006",
            "primitives" : [
                {
                    "attributes" : {
                        "POSITION" : 4,
                        "NORMAL" : 5,
                        "TEXCOORD_0" : 6
                    },
                    "indices" : 7,
                    "material" : 0
                },
                {
                    "attributes" : {
                        "POSITION" : 8,
                        "NORMAL" : 9,
                        "TEXCOORD_0" : 10
                    },
                    "indices" : 11,
                    "material" : 1
                },
                {
                    "attributes" : {
                        "POSITION" : 12,
                        "NORMAL" : 13,
                        "TEXCOORD_0" : 14
                    },
                    "indices" : 15,
                    "material" : 2
                },
                {
                    "attributes" : {
                        "POSITION" : 16,
                        "NORMAL" : 17,
                        "TEXCOORD_0" : 18
                    },
                    "indices" : 15,
                    "material" : 3
                }
            ]
        }
    ],
    "textures" : [
        {
            "source" : 0
        },
        {
            "source" : 1
        },
        {
            "source" : 2
        }
    ],
    "images" : [
        {
            "bufferView" : 12,
            "mimeType" : "image/jpeg",
            "name" : "WrappingPaperGreen"
        },
        {
            "bufferView" : 17,
            "mimeType" : "image/jpeg",
            "name" : "WrappingPaper"
        },
        {
            "bufferView" : 21,
            "mimeType" : "image/jpeg",
            "name" : "WrappingBlue"
        }
    ],
    "accessors" : [
        {
            "bufferView" : 0,
            "componentType" : 5126,
            "count" : 72,
            "max" : [
                1.286715030670166,
                0.9326840043067932,
                1.124769926071167
            ],
            "min" : [
                -1.2329645156860352,
                -0.6087006330490112,
                -1.2279951572418213
            ],
            "type" : "VEC3"
        },
        {
            "bufferView" : 1,
            "componentType" : 5126,
            "count" : 72,
            "type" : "VEC3"
        },
        {
            "bufferView" : 2,
            "componentType" : 5126,
            "count" : 72,
            "type" : "VEC2"
        },
        {
            "bufferView" : 3,
            "componentType" : 5123,
            "count" : 108,
            "type" : "SCALAR"
        },
        {
            "bufferView" : 4,
            "componentType" : 5126,
            "count" : 2652,
            "max" : [
                1.1652860641479492,
                0.5202629566192627,
                0.8933372497558594
            ],
            "min" : [
                -1.0142145156860352,
                -0.998393177986145,
                -1.2142682075500488
            ],
            "type" : "VEC3"
        },
        {
            "bufferView" : 5,
            "componentType" : 5126,
            "count" : 2652,
            "type" : "VEC3"
        },
        {
            "bufferView" : 6,
            "componentType" : 5126,
            "count" : 2652,
            "type" : "VEC2"
        },
        {
            "bufferView" : 7,
            "componentType" : 5123,
            "count" : 5130,
            "type" : "SCALAR"
        },
        {
            "bufferView" : 8,
            "componentType" : 5126,
            "count" : 140,
            "max" : [
                0.05737495422363281,
                0.38629937171936035,
                1.1029906272888184
            ],
            "min" : [
                -1.223867416381836,
                -0.998393177986145,
                -0.1782515048980713
            ],
            "type" : "VEC3"
        },
        {
            "bufferView" : 9,
            "componentType" : 5126,
            "count" : 140,
            "type" : "VEC3"
        },
        {
            "bufferView" : 10,
            "componentType" : 5126,
            "count" : 140,
            "type" : "VEC2"
        },
        {
            "bufferView" : 11,
            "componentType" : 5123,
            "count" : 252,
            "type" : "SCALAR"
        },
        {
            "bufferView" : 13,
            "componentType" : 5126,
            "count" : 132,
            "max" : [
                0.3234243392944336,
                -0.08977162837982178,
                -0.27656006813049316
            ],
            "min" : [
                -0.6079912185668945,
                -0.998393177986145,
                -1.2079753875732422
            ],
            "type" : "VEC3"
        },
        {
            "bufferView" : 14,
            "componentType" : 5126,
            "count" : 132,
            "type" : "VEC3"
        },
        {
            "bufferView" : 15,
            "componentType" : 5126,
            "count" : 132,
            "type" : "VEC2"
        },
        {
            "bufferView" : 16,
            "componentType" : 5123,
            "count" : 252,
            "type" : "SCALAR"
        },
        {
            "bufferView" : 18,
            "componentType" : 5126,
            "count" : 132,
            "max" : [
                1.2564401626586914,
                -0.08977162837982178,
                0.8418254852294922
            ],
            "min" : [
                0.12672996520996094,
                -0.998393177986145,
                -0.2878842353820801
            ],
            "type" : "VEC3"
        },
        {
            "bufferView" : 19,
            "componentType" : 5126,
            "count" : 132,
            "type" : "VEC3"
        },
        {
            "bufferView" : 20,
            "componentType" : 5126,
            "count" : 132,
            "type" : "VEC2"
        }
    ],
    "bufferViews" : [
        {
            "buffer" : 0,
            "byteLength" : 864,
            "byteOffset" : 0
        },
        {
            "buffer" : 0,
            "byteLength" : 864,
            "byteOffset" : 864
        },
        {
            "buffer" : 0,
            "byteLength" : 576,
            "byteOffset" : 1728
        },
        {
            "buffer" : 0,
            "byteLength" : 216,
            "byteOffset" : 2304
        },
        {
            "buffer" : 0,
            "byteLength" : 31824,
            "byteOffset" : 2520
        },
        {
            "buffer" : 0,
            "byteLength" : 31824,
            "byteOffset" : 34344
        },
        {
            "buffer" : 0,
            "byteLength" : 21216,
            "byteOffset" : 66168
        },
        {
            "buffer" : 0,
            "byteLength" : 10260,
            "byteOffset" : 87384
        },
        {
            "buffer" : 0,
            "byteLength" : 1680,
            "byteOffset" : 97644
        },
        {
            "buffer" : 0,
            "byteLength" : 1680,
            "byteOffset" : 99324
        },
        {
            "buffer" : 0,
            "byteLength" : 1120,
            "byteOffset" : 101004
        },
        {
            "buffer" : 0,
            "byteLength" : 504,
            "byteOffset" : 102124
        },
        {
            "buffer" : 0,
            "byteLength" : 384708,
            "byteOffset" : 102628
        },
        {
            "buffer" : 0,
            "byteLength" : 1584,
            "byteOffset" : 487336
        },
        {
            "buffer" : 0,
            "byteLength" : 1584,
            "byteOffset" : 488920
        },
        {
            "buffer" : 0,
            "byteLength" : 1056,
            "byteOffset" : 490504
        },
        {
            "buffer" : 0,
            "byteLength" : 504,
            "byteOffset" : 491560
        },
        {
            "buffer" : 0,
            "byteLength" : 212901,
            "byteOffset" : 492064
        },
        {
            "buffer" : 0,
            "byteLength" : 1584,
            "byteOffset" : 704968
        },
        {
            "buffer" : 0,
            "byteLength" : 1584,
            "byteOffset" : 706552
        },
        {
            "buffer" : 0,
            "byteLength" : 1056,
            "byteOffset" : 708136
        },
        {
            "buffer" : 0,
            "byteLength" : 405357,
            "byteOffset" : 709192
        }
    ],
    "buffers" : [
        {
            "byteLength" : 1114552,
            "uri" : "data:application/octet-stream;base64,"
        }
    ]
}
